<?xml version="1.0" encoding="UTF-8"?><svg id="Warstwa_2" xmlns="http://www.w3.org/2000/svg" viewBox="0 0 377.38 63.52"><defs><style>.cls-1{fill:#202a26;}</style></defs><g id="Warstwa_1-2"><path class="cls-1" d="m16.47,4.31c-3.37,0-5.9.91-7.59,2.71-1.69,1.81-3.21,4.8-4.55,8.97-.92,0-1.75-.08-2.48-.23-.74-.15-1.35-.51-1.84-1.06.43-1.29.86-2.76,1.29-4.42.43-1.66.83-3.36,1.2-5.11.37-1.75.64-3.33.83-4.74,1.72.06,3.79.12,6.21.18,2.42.06,5.09.09,8,.09h18.17c3,0,5.76-.03,8.28-.09,2.51-.06,4.6-.12,6.26-.18-.37,2.15-.66,4.46-.87,6.95-.22,2.48-.32,5.01-.32,7.59-.68.37-1.37.6-2.07.69-.71.09-1.49.11-2.35.05-.06-4.23-.71-7.19-1.93-8.88-1.23-1.69-3.74-2.53-7.54-2.53h-18.68Zm5.61-1.1h8.65l-8.46,48.48c-.31,1.72-.38,3.08-.23,4.09.15,1.01.72,1.76,1.7,2.25.98.49,2.54.89,4.69,1.2.12.61.21,1.24.28,1.89.06.64.03,1.33-.09,2.07-1.9-.12-3.88-.2-5.93-.23-2.06-.03-4-.05-5.84-.05-2.02,0-4.13.01-6.3.05-2.18.03-4.09.11-5.75.23,0-.86.06-1.62.18-2.3.12-.67.28-1.26.46-1.75,2.02-.24,3.57-.63,4.65-1.15,1.07-.52,1.87-1.35,2.39-2.48.52-1.13.97-2.71,1.33-4.74L22.08,3.2Z"/><path class="cls-1" d="m47.01,63.19c0-.8.06-1.53.18-2.21.12-.67.31-1.26.55-1.75,1.66-.18,2.94-.51,3.86-.97s1.62-1.24,2.12-2.35c.49-1.1.92-2.67,1.29-4.69l6.72-38.82c.37-2.08.43-3.65.18-4.69-.25-1.04-.83-1.81-1.75-2.3-.92-.49-2.24-.83-3.96-1.01-.06-.61-.11-1.24-.14-1.89-.03-.64-.02-1.33.05-2.07,1.72.06,3.5.12,5.34.18,1.84.06,3.74.09,5.7.09s3.86-.03,5.7-.09c1.84-.06,3.68-.12,5.52-.18-.06.74-.14,1.43-.23,2.07-.09.64-.29,1.27-.6,1.89-1.53.25-2.76.61-3.68,1.1-.92.49-1.64,1.26-2.16,2.3-.52,1.04-.97,2.58-1.33,4.6l-6.72,38.82c-.37,2.02-.46,3.59-.28,4.69s.74,1.87,1.66,2.3c.92.43,2.27.77,4.05,1.01.12.55.21,1.18.28,1.89.06.71.03,1.4-.09,2.07-1.84-.12-3.71-.2-5.61-.23-1.9-.03-3.74-.05-5.52-.05s-3.68.01-5.7.05c-2.02.03-3.83.11-5.43.23Zm18.58-29.62l.83-4.51h30.82l-.74,3.96h-6.85c-2.73,0-5.58.02-8.56.05-2.98.03-5.83.09-8.56.18-2.73.09-5.05.2-6.95.32Zm18.12,29.62c0-.8.06-1.53.18-2.21.12-.67.31-1.26.55-1.75,1.66-.18,2.94-.51,3.86-.97s1.62-1.24,2.12-2.35c.49-1.1.92-2.67,1.29-4.69l6.72-38.82c.37-2.08.43-3.65.18-4.69-.25-1.04-.83-1.81-1.75-2.3-.92-.49-2.24-.83-3.96-1.01-.06-.61-.11-1.24-.14-1.89-.03-.64-.02-1.33.05-2.07,1.72.06,3.5.12,5.34.18,1.84.06,3.74.09,5.7.09s3.86-.03,5.7-.09c1.84-.06,3.68-.12,5.52-.18-.06.74-.14,1.43-.23,2.07-.09.64-.29,1.27-.6,1.89-1.53.25-2.76.61-3.68,1.1-.92.49-1.64,1.26-2.16,2.3-.52,1.04-.97,2.58-1.33,4.6l-6.72,38.82c-.37,2.02-.46,3.59-.28,4.69s.74,1.87,1.66,2.3c.92.43,2.27.77,4.05,1.01.12.55.21,1.18.28,1.89.06.71.03,1.4-.09,2.07-1.84-.12-3.71-.2-5.61-.23-1.9-.03-3.74-.05-5.52-.05s-3.68.01-5.7.05c-2.02.03-3.83.11-5.43.23Z"/><path class="cls-1" d="m116.56,63.19c0-.67.05-1.35.14-2.02.09-.67.26-1.32.51-1.93,1.84-.24,3.23-.64,4.19-1.2.95-.55,1.67-1.47,2.16-2.76.49-1.29.92-3.13,1.29-5.52l6.35-36.52c.43-2.27.54-4,.32-5.2-.22-1.2-.78-2.05-1.7-2.58-.92-.52-2.27-.87-4.05-1.06-.06-.61-.11-1.24-.14-1.89-.03-.64-.02-1.33.05-2.07,1.78.06,3.46.11,5.06.14,1.6.03,3.08.06,4.46.09,1.38.03,2.64.05,3.77.05h2.9l-8.37,49.04c-.43,2.58-.55,4.51-.37,5.8s.84,2.15,1.98,2.58c1.13.43,2.84.64,5.11.64l-.55,4.14h-6.35c-2.02,0-3.97.01-5.84.05-1.87.03-3.71.06-5.52.09-1.81.03-3.6.08-5.38.14Zm38.55-20.61c-.86-.12-1.64-.26-2.35-.41-.71-.15-1.33-.41-1.89-.78.18-2.08.03-3.68-.46-4.78-.49-1.1-1.43-1.89-2.81-2.35-1.38-.46-3.33-.69-5.84-.69h-6.35l.73-4.14h5.98c3.8,0,6.56-.51,8.28-1.52,1.71-1.01,2.82-3.02,3.31-6.03.8-.12,1.53-.2,2.21-.23.67-.03,1.41.02,2.21.14-.37,1.53-.71,3.02-1.01,4.46-.31,1.44-.61,3.36-.92,5.75-.31,2.21-.54,4.14-.69,5.8-.15,1.66-.29,3.25-.41,4.78Zm7.08-26.5c-.06-2.64-.35-4.78-.88-6.44-.52-1.66-1.69-2.87-3.5-3.63-1.81-.77-4.71-1.15-8.69-1.15h-9.84l2.58-4.14h8.28c2.7,0,5.47-.03,8.33-.09,2.85-.06,5.84-.12,8.97-.18-.25,2.27-.45,4.8-.6,7.59-.15,2.79-.17,5.26-.05,7.41-1.17.49-2.7.71-4.6.64Zm-3.4,47.1c-1.78-.12-3.62-.2-5.52-.23-1.9-.03-3.96-.05-6.16-.05h-7.45l.55-4.14h1.75c3.8,0,6.75-.46,8.83-1.38,2.08-.92,3.77-2.25,5.06-4,1.29-1.75,2.54-3.85,3.77-6.3.86.12,1.62.34,2.3.64.67.31,1.29.77,1.84,1.38-.98,1.9-1.92,4.05-2.81,6.44-.89,2.39-1.61,4.94-2.16,7.64Z"/><path class="cls-1" d="m193.47.44c1.59.06,2.99.12,4.19.18,1.2.06,2.28.09,3.27.09h6.12c1.2,0,2.42-.03,3.68-.09,1.26-.06,2.44-.12,3.54-.18,0,.68-.03,1.35-.09,2.02-.06.68-.25,1.35-.55,2.02-2.27.37-3.91.86-4.92,1.47-1.01.61-1.58,1.58-1.7,2.9-.12,1.32.03,3.24.46,5.75.61,3.62,1.27,7.56,1.98,11.82.71,4.26,1.39,8.57,2.07,12.93.67,4.36,1.29,8.5,1.84,12.42h-1.66c4.35-8.28,8.6-16.71,12.74-25.3,4.14-8.59,8.2-17.23,12.19-25.94,1.04-.49,2.36-.64,3.96-.46,1.41,5.21,2.76,10.73,4.05,16.56,1.29,5.83,2.5,11.67,3.63,17.53,1.13,5.86,2.1,11.52,2.9,16.97h-1.84c2.94-5.7,5.72-11.39,8.33-17.07,2.61-5.67,5.07-11.36,7.41-17.07,1.29-3.19,2.07-5.6,2.35-7.22.28-1.62,0-2.82-.83-3.59-.83-.77-2.32-1.36-4.46-1.79-.25-1.23-.28-2.54-.09-3.96,1.23.12,2.53.2,3.91.23,1.38.03,2.84.05,4.37.05s3.08-.01,4.65-.05c1.56-.03,2.93-.11,4.09-.23,0,1.35-.28,2.67-.83,3.96-.98.43-1.89,1.07-2.71,1.93-.83.86-1.73,2.19-2.71,4-.98,1.81-2.21,4.43-3.68,7.87-3.19,7.42-6.52,14.86-9.98,22.31-3.47,7.45-7.1,14.92-10.9,22.4-.55.24-1.17.4-1.84.46-.68.06-1.32.06-1.93,0-.74-5.27-1.66-10.92-2.76-16.93-1.1-6.01-2.3-11.99-3.59-17.94-1.29-5.95-2.64-11.5-4.05-16.65h1.84c-3.93,8.53-8.05,17.11-12.37,25.76-4.32,8.65-8.69,17.08-13.11,25.3-.31.18-.69.32-1.15.41-.46.09-.94.15-1.43.18-.49.03-.95.01-1.38-.05-1.35-9.57-2.71-18.48-4.09-26.73-1.38-8.25-2.68-15.75-3.91-22.49-.49-2.82-.92-4.88-1.29-6.16-.37-1.29-.8-2.16-1.29-2.62-.49-.46-1.2-.84-2.12-1.15-.18-.61-.29-1.24-.32-1.89-.03-.64-.02-1.3.05-1.98Z"/><path class="cls-1" d="m261.83,63.19c0-.67.06-1.35.18-2.02.12-.67.31-1.32.55-1.93,1.17-.37,2.18-.89,3.04-1.56.86-.67,1.76-1.69,2.71-3.04.95-1.35,2.13-3.22,3.54-5.61,2.33-3.99,4.66-7.99,6.99-12.01,2.33-4.02,4.63-8.03,6.9-12.05,2.27-4.02,4.54-8.05,6.81-12.1,2.27-4.05,4.54-8.1,6.81-12.14.55-.24,1.17-.4,1.84-.46.67-.06,1.26-.09,1.75-.09,1.59,5.58,3.14,11.18,4.65,16.79,1.5,5.61,2.97,11.24,4.42,16.88,1.44,5.64,2.84,11.29,4.19,16.93.55,2.27,1.07,3.96,1.56,5.06.49,1.1,1.04,1.87,1.66,2.3.61.43,1.35.8,2.21,1.1.18.68.29,1.33.32,1.98.03.64.01,1.3-.05,1.98-.98-.12-2.1-.2-3.36-.23-1.26-.03-2.48-.05-3.68-.05h-5.61c-.83,0-1.69.01-2.58.05-.89.03-1.79.06-2.71.09-.92.03-1.84.08-2.76.14,0-.67.06-1.35.18-2.02.12-.67.31-1.32.55-1.93,2.7-.31,4.38-.93,5.06-1.89.67-.95.67-2.84,0-5.66-1.17-5.03-2.38-10.04-3.63-15.04-1.26-5-2.59-9.95-4-14.86-.55-1.9-1-3.6-1.33-5.11-.34-1.5-.69-3.36-1.06-5.57h.64c-1.04,2.21-1.98,4.11-2.81,5.7-.83,1.6-1.83,3.47-2.99,5.61-2.45,4.54-4.95,9.09-7.5,13.66-2.55,4.57-5.17,9.12-7.87,13.66-1.41,2.39-2.29,4.22-2.62,5.47-.34,1.26-.15,2.16.55,2.71.7.55,1.85.98,3.45,1.29.12.61.21,1.26.28,1.93.06.68.06,1.35,0,2.02-.98-.12-1.93-.2-2.85-.23-.92-.03-1.84-.05-2.76-.05h-2.85c-1.6,0-2.96.01-4.09.05-1.14.03-2.38.11-3.73.23Zm17.3-20.06l2.02-4.6h24.2l.28,4.23c-2.76,0-5.69.02-8.79.05-3.1.03-6.18.06-9.25.09-3.07.03-5.89.11-8.46.23Z"/><path class="cls-1" d="m343.62,42.3c-1.47-5.09-3.05-10.06-4.74-14.9-1.69-4.84-3.51-9.6-5.47-14.26-.98-2.45-1.79-4.25-2.44-5.38-.64-1.13-1.26-1.92-1.84-2.35-.58-.43-1.33-.8-2.25-1.1-.12-.67-.18-1.3-.18-1.89s.03-1.24.09-1.98c1.17.06,2.31.12,3.45.18,1.13.06,2.27.09,3.4.09h6.99c1.2,0,2.44-.03,3.73-.09,1.29-.06,2.7-.12,4.23-.18,0,.74-.08,1.43-.23,2.07-.15.64-.35,1.3-.6,1.98-3.01.43-4.91,1.12-5.7,2.07-.8.95-.71,2.68.28,5.2,1.47,3.74,2.84,7.61,4.09,11.59,1.26,3.99,2.44,8.07,3.54,12.24l-1.47-.74c2.39-3.25,4.71-6.58,6.95-9.98,2.24-3.4,4.49-7.01,6.76-10.81,1.78-3.13,2.64-5.4,2.58-6.81-.06-1.41-1.5-2.36-4.32-2.85-.25-1.16-.28-2.48-.09-3.96,1.53.12,2.96.2,4.28.23,1.32.03,2.84.05,4.55.05,1.47,0,2.84-.01,4.09-.05,1.26-.03,2.62-.11,4.09-.23,0,1.35-.28,2.67-.83,3.96-.68.25-1.37.58-2.07,1.01-.71.43-1.53,1.2-2.48,2.3-.95,1.1-2.19,2.85-3.73,5.24-3.74,5.95-7.22,11.22-10.44,15.82-3.22,4.6-6.52,9.11-9.89,13.52h-4.32Zm-12.42,20.88c0-.86.06-1.62.18-2.3.12-.67.28-1.26.46-1.75,2.02-.37,3.57-.8,4.65-1.29,1.07-.49,1.87-1.29,2.39-2.39.52-1.1.97-2.67,1.33-4.69l2.39-13.62h8.65l-2.58,14.54c-.31,1.72-.38,3.07-.23,4.05.15.98.72,1.72,1.7,2.21.98.49,2.54.92,4.69,1.29.12.61.21,1.24.28,1.89.06.64.03,1.33-.09,2.07-1.9-.12-3.88-.2-5.93-.23-2.06-.03-4-.05-5.84-.05-2.02,0-4.12.01-6.3.05-2.18.03-4.09.11-5.75.23Z"/></g></svg>