<?xml version="1.0" encoding="UTF-8"?><svg id="Warstwa_2" xmlns="http://www.w3.org/2000/svg" viewBox="0 0 150.62 150.62"><defs><style>.cls-1{fill:#202a26;}</style></defs><g id="Warstwa_1-2"><path class="cls-1" d="m150.61,11.16c0-.31-.02-.63-.05-.94-.02-.19-.05-.37-.08-.56-.03-.18-.05-.36-.08-.54-.04-.2-.09-.4-.14-.59-.04-.16-.08-.32-.12-.48-.06-.19-.13-.38-.2-.56-.06-.16-.11-.33-.18-.49-.07-.17-.16-.34-.24-.51-.08-.17-.15-.34-.24-.5-.09-.16-.18-.31-.27-.47-.1-.16-.19-.33-.3-.49-.11-.17-.24-.33-.36-.49-.1-.13-.19-.27-.3-.4-.47-.58-1-1.11-1.58-1.58-.13-.11-.27-.2-.4-.3-.16-.12-.32-.25-.49-.36-.16-.11-.32-.2-.48-.29-.16-.09-.31-.19-.47-.28-.16-.09-.33-.16-.49-.24-.17-.08-.34-.17-.51-.24-.16-.06-.32-.12-.48-.17-.19-.07-.38-.14-.57-.2-.15-.05-.31-.08-.46-.12-.2-.05-.41-.11-.61-.15-.17-.03-.34-.05-.5-.08-.2-.03-.39-.07-.59-.09-.27-.03-.54-.03-.81-.04-.1,0-.2-.02-.3-.02H11.72C5.47,0,.12,4.88,0,11.13s5,11.55,11.34,11.55h51.1c18.26,0,27.4,22.07,14.49,34.98L3.32,131.26c-4.43,4.43-4.43,11.61,0,16.04,2.21,2.21,5.12,3.32,8.02,3.32s5.8-1.11,8.02-3.32l73.6-73.6c12.91-12.91,34.98-3.77,34.98,14.49v50.72c0,6.24,4.88,11.6,11.12,11.71,6.36.12,11.55-5,11.55-11.34V11.34c0-.06,0-.12,0-.18Z"/></g></svg>