<?xml version="1.0" encoding="UTF-8"?><svg id="Warstwa_2" xmlns="http://www.w3.org/2000/svg" viewBox="0 0 271.33 271.33"><defs><style>.cls-1{fill:#ffd901;}</style></defs><g id="Warstwa_1-2"><path class="cls-1" d="m261.02,125.74h-17.83c-53.91,0-97.6-43.7-97.6-97.6V10.31c0-5.31-4.01-9.97-9.31-10.29-5.76-.35-10.53,4.22-10.53,9.9v18.22c0,53.91-43.7,97.6-97.6,97.6H10.31c-5.31,0-9.97,4.01-10.29,9.31-.35,5.76,4.22,10.53,9.9,10.53h18.22c53.91,0,97.6,43.7,97.6,97.6v17.83c0,5.31,4.01,9.97,9.31,10.29,5.76.35,10.53-4.22,10.53-9.9v-18.22c0-53.91,43.7-97.6,97.6-97.6h18.22c5.68,0,10.25-4.78,9.9-10.53-.32-5.3-4.98-9.31-10.29-9.31Z"/></g></svg>