<?xml version="1.0" encoding="UTF-8"?><svg id="Warstwa_2" xmlns="http://www.w3.org/2000/svg" viewBox="0 0 267.22 267.22"><defs><style>.cls-1{fill:#ffd901;}</style></defs><g id="Warstwa_1-2"><path class="cls-1" d="m261.26,127.94h-88.77c-9.3,0-13.95-11.24-7.38-17.81l62.77-62.77c2.11-2.11,2.47-5.56.55-7.85-2.17-2.58-6.03-2.71-8.36-.37l-62.98,62.98c-6.57,6.57-17.81,1.92-17.81-7.38V5.96c0-2.99-2.18-5.68-5.16-5.94-3.36-.29-6.18,2.35-6.18,5.65v89.06c0,9.3-11.24,13.95-17.81,7.38l-62.98-62.98c-2.33-2.33-6.19-2.21-8.36.37-1.92,2.29-1.56,5.74.55,7.85l62.77,62.77c6.57,6.57,1.92,17.81-7.38,17.81H5.96c-2.99,0-5.68,2.18-5.94,5.16-.29,3.36,2.35,6.18,5.65,6.18h89.06c9.3,0,13.95,11.24,7.38,17.81l-62.76,62.76c-2.3,2.3-2.43,6.19-.04,8.39,1.08,1,2.46,1.5,3.84,1.5,1.45,0,2.9-.55,4.01-1.66l62.98-62.98c6.57-6.57,17.81-1.92,17.81,7.38v88.77c0,2.99,2.18,5.68,5.16,5.94,3.36.29,6.18-2.35,6.18-5.65v-89.06c0-9.3,11.24-13.95,17.81-7.38l62.98,62.98c1.11,1.11,2.56,1.66,4.01,1.66s2.76-.5,3.84-1.5c2.39-2.2,2.25-6.1-.04-8.39l-62.76-62.76c-6.57-6.57-1.92-17.81,7.38-17.81h89.06c3.3,0,5.94-2.82,5.65-6.18-.26-2.98-2.95-5.16-5.94-5.16Z"/></g></svg>